 <svg
                width="64px"
                height="64px"
                viewBox="0 0 64 64"
                enable-background="new 0 0 64 64"
              >
                <g>
                  <path
                    fill="#231F20"
                    d="M55,11H9c-0.553,0-1,0.447-1,1v34c0,0.553,0.447,1,1,1h46c0.553,0,1-0.447,1-1V12
		C56,11.447,55.553,11,55,11z"
                  />
                  <path
                    fill="#231F20"
                    d="M63,49h-3V11c0-2.211-1.789-4-4-4H8c-2.211,0-4,1.789-4,4v38H1c-0.553,0-1,0.447-1,1v3c0,2.211,1.789,4,4,4
		h56c2.211,0,4-1.789,4-4v-3C64,49.447,63.553,49,63,49z M58,49H36c-0.553,0-1,0.447-1,1v1h-6v-1c0-0.553-0.447-1-1-1H6V11
		c0-1.104,0.896-2,2-2h48c1.104,0,2,0.896,2,2V49z"
                  />
                </g>
              </svg>